<svg id="calendar_today_black_24dp" xmlns="http://www.w3.org/2000/svg" width="18" height="18" viewBox="0 0 18 18">
  <defs>
    <style>
      .cls-1 {
        fill: none;
      }
    </style>
  </defs>
  <path id="패스_3336" data-name="패스 3336" class="cls-1" d="M0,0H18V18H0Z"/>
  <path id="패스_3337" data-name="패스 3337" d="M15.5,2.5h-.75V1.75a.75.75,0,0,0-1.5,0V2.5H5.75V1.75a.75.75,0,0,0-1.5,0V2.5H3.5A1.5,1.5,0,0,0,2,4V16a1.5,1.5,0,0,0,1.5,1.5h12A1.5,1.5,0,0,0,17,16V4A1.5,1.5,0,0,0,15.5,2.5ZM14.75,16H4.25a.752.752,0,0,1-.75-.75v-9h12v9A.752.752,0,0,1,14.75,16Z" transform="translate(-0.5 -0.25)"/>
</svg>
