<svg id="icon_bottom_refrigerator_24px" xmlns="http://www.w3.org/2000/svg" width="24" height="24" viewBox="0 0 24 24">
  <defs>
    <style>
      .cls-1 {
        fill: none;
      }

      .cls-2 {
        fill: #707070;
      }
    </style>
  </defs>
  <path id="패스_5" data-name="패스 5" class="cls-1" d="M0,0H24V24H0Z"/>
  <path id="패스_6" data-name="패스 6" class="cls-2" d="M8,5h2V8H8Zm0,7h2v5H8ZM18,2.01,6,2A2,2,0,0,0,4,4V20a2.006,2.006,0,0,0,2,2H18a2.006,2.006,0,0,0,2-2V4a1.991,1.991,0,0,0-2-1.99ZM18,20H6V10.98H18ZM18,9H6V4H18Z"/>
</svg>
