<svg id="swap_vert_black_24dp" xmlns="http://www.w3.org/2000/svg" width="18" height="18" viewBox="0 0 18 18">
  <defs>
    <style>
      .cls-1 {
        fill: none;
      }
    </style>
  </defs>
  <path id="패스_3341" data-name="패스 3341" class="cls-1" d="M0,0H18V18H0Z"/>
  <path id="패스_3342" data-name="패스 3342" d="M13.427,13.559V9.052a.75.75,0,0,0-1.5,0v4.507H10.585a.371.371,0,0,0-.263.638l2.092,2.085a.385.385,0,0,0,.533,0L15.04,14.2a.373.373,0,0,0-.262-.638ZM7.915,3.314,5.822,5.407a.371.371,0,0,0,.263.637H7.427v4.508a.75.75,0,0,0,1.5,0V6.044H10.27a.371.371,0,0,0,.263-.637L8.44,3.314a.376.376,0,0,0-.525,0Z" transform="translate(-1.427 -0.802)"/>
</svg>
