<svg id="icon_bottom_shopping_24px" xmlns="http://www.w3.org/2000/svg" width="24" height="24" viewBox="0 0 24 24">
  <defs>
    <style>
      .cls-1 {
        fill: none;
      }

      .cls-2 {
        fill: #707070;
      }
    </style>
  </defs>
  <rect id="사각형_5" data-name="사각형 5" class="cls-1" width="24" height="24"/>
  <path id="패스_7" data-name="패스 7" class="cls-2" d="M18,6H16A4,4,0,0,0,8,6H6A2.006,2.006,0,0,0,4,8V20a2.006,2.006,0,0,0,2,2H18a2.006,2.006,0,0,0,2-2V8A2.006,2.006,0,0,0,18,6ZM12,4a2.006,2.006,0,0,1,2,2H10A2.006,2.006,0,0,1,12,4Zm6,16H6V8H8v2a1,1,0,0,0,2,0V8h4v2a1,1,0,0,0,2,0V8h2Z"/>
</svg>
