<svg xmlns="http://www.w3.org/2000/svg" xmlns:xlink="http://www.w3.org/1999/xlink" width="128" height="128" viewBox="0 0 128 128">
  <defs>
    <filter id="사각형_1073" x="32" y="19.798" width="58.413" height="97.829" filterUnits="userSpaceOnUse">
      <feOffset dy="3" input="SourceAlpha"/>
      <feGaussianBlur stdDeviation="3" result="blur"/>
      <feFlood flood-opacity="0.161"/>
      <feComposite operator="in" in2="blur"/>
      <feComposite in="SourceGraphic"/>
    </filter>
    <filter id="패스_2679" x="35.934" y="42.348" width="51.298" height="22.736" filterUnits="userSpaceOnUse">
      <feOffset dy="3" input="SourceAlpha"/>
      <feGaussianBlur stdDeviation="3" result="blur-2"/>
      <feFlood flood-opacity="0.161"/>
      <feComposite operator="in" in2="blur-2"/>
      <feComposite in="SourceGraphic"/>
    </filter>
  </defs>
  <g id="logo_white" transform="translate(-555 -577)">
    <path id="패스_3324" data-name="패스 3324" d="M8,0H120a8,8,0,0,1,8,8V120a8,8,0,0,1-8,8H8a8,8,0,0,1-8-8V8A8,8,0,0,1,8,0Z" transform="translate(555 577)" fill="none"/>
    <g id="logo" transform="translate(590.99 538.789)">
      <g transform="matrix(1, 0, 0, 1, -35.99, 38.21)" filter="url(#사각형_1073)">
        <rect id="사각형_1073-2" data-name="사각형 1073" width="40.413" height="79.829" rx="4" transform="translate(41 25.8)" fill="#fff"/>
      </g>
      <path id="패스_3320" data-name="패스 3320" d="M5.526,65.013c.1.155,38.286.285,38.885.142s6.944-4,6.509-4.547-39.744-.42-40.435-.262S5.428,64.858,5.526,65.013Z" transform="translate(0.801 0)" fill="#f5f5f5"/>
      <path id="패스_3321" data-name="패스 3321" d="M43.92,64.868a44.156,44.156,0,0,1,7.422-4.238c.722-.09-.437,75.095-.455,75.584s-7.149,7.02-7.655,6.95S43.41,65.474,43.92,64.868Z" transform="translate(0.372 0.064)" fill="#f5f5f5"/>
      <path id="패스_3322" data-name="패스 3322" d="M2.644,1.1A5.314,5.314,0,0,0,.178,3.826,4.256,4.256,0,0,0,.973,7.711c1.592.167,3.159-1.555,3.976-2.97A11.471,11.471,0,0,0,6.156,0,11.037,11.037,0,0,0,2.644,1.1Z" transform="translate(28.932 61.142) rotate(19)" fill="#eaeaea"/>
      <path id="패스_3318" data-name="패스 3318" d="M255.877,437.59a4.163,4.163,0,0,1-2.558,3.88,14.806,14.806,0,0,1-1.973.2c-1.279.187-2.607.982-3.784.327-.674-.379-1.157-1.174-1.819-1.584a4.388,4.388,0,0,0-2.481-.358,2.678,2.678,0,0,1-2.347-.9,1.307,1.307,0,0,0-1.406-.73,3.343,3.343,0,0,0-1.939.818c-.589.369-1.32-.031-1.945.218s-.938.935-1.45,1.34a3.085,3.085,0,0,1-2.436.41l-2.842-.3a8.82,8.82,0,0,1-6.009-3.325s8.761-2.051,16.622-.742A81.916,81.916,0,0,0,255.877,437.59Z" transform="translate(-213.942 -346.406)" fill="#99584b"/>
      <path id="패스_2691" data-name="패스 2691" d="M5.543.222A7.633,7.633,0,0,1,2.772.485,7.642,7.642,0,0,1,0,.222,8.227,8.227,0,0,1,2.772,0,8.218,8.218,0,0,1,5.543.222Z" transform="translate(7.083 76.952) rotate(90)" fill="#263238"/>
      <path id="패스_2768" data-name="패스 2768" d="M9.316.222A21.141,21.141,0,0,1,4.659.485,21.165,21.165,0,0,1,0,.222,22.883,22.883,0,0,1,4.659,0,22.857,22.857,0,0,1,9.316.222Z" transform="translate(7.325 101.184) rotate(90)" fill="#263238"/>
      <g transform="matrix(1, 0, 0, 1, -35.99, 38.21)" filter="url(#패스_2679)">
        <path id="패스_2679-2" data-name="패스 2679" d="M56.6,391.036a23.368,23.368,0,0,0-15.915,4.7h33.3A43.557,43.557,0,0,0,56.6,391.036Z" transform="translate(4.24 -342.65)" fill="#aa6755"/>
      </g>
      <path id="패스_2769" data-name="패스 2769" d="M248.128,422.955a.82.82,0,1,0,.139-.184" transform="translate(-230.999 -334.558)" fill="#99584b"/>
      <path id="패스_2680" data-name="패스 2680" d="M70.735,318.195a6.084,6.084,0,0,0-3.024,2.953,4.208,4.208,0,0,0,.974,4.212c1.952.181,3.874-1.685,4.875-3.22A11.308,11.308,0,0,0,75.041,317,14.838,14.838,0,0,0,70.735,318.195Z" transform="translate(-41.296 -255.444)" fill="#5a8676"/>
      <path id="패스_2771" data-name="패스 2771" d="M248.128,422.955a.82.82,0,1,0,.139-.184" transform="translate(-217.768 -334.138)" fill="#99584b"/>
      <path id="패스_2681" data-name="패스 2681" d="M.573,15.97A.406.406,0,0,1,.466,15.8,2.758,2.758,0,0,1,.26,15.32,4.945,4.945,0,0,1,0,13.529a10.074,10.074,0,0,1,2.512-5.85A27.763,27.763,0,0,1,8.876,2.147c.527-.337.988-.644,1.417-.908L11.43.56l.758-.42a1.894,1.894,0,0,1,.28-.14.763.763,0,0,1-.206.156c-.181.11-.4.253-.684.431l-1.1.679-1.359.919A29.286,29.286,0,0,0,2.9,7.706,10.865,10.865,0,0,0,.277,13.521a4.837,4.837,0,0,0,.115,1.786,2.063,2.063,0,0,0,.124.485.34.34,0,0,1,.058.178Z" transform="translate(17.873 73.94) rotate(-30)" fill="#263238"/>
      <path id="패스_2770" data-name="패스 2770" d="M266.084,419.9a21.951,21.951,0,0,0-4.4-.727,22.687,22.687,0,0,0-4.422.677,8.551,8.551,0,0,1,8.824.05Z" transform="translate(-236.167 -331.506)" fill="#99584b"/>
      <path id="패스_2682" data-name="패스 2682" d="M49.545,365.706a4.265,4.265,0,0,0-2.33-2.024,7.841,7.841,0,0,0-3.262-.443,20.332,20.332,0,0,0-3.262.523,7.17,7.17,0,0,0,1.17,3.091,5.792,5.792,0,0,0,1.929,1.484,7.292,7.292,0,0,0,2.61.814,5.142,5.142,0,0,0,2.862-.59A2.714,2.714,0,0,0,49.545,365.706Z" transform="translate(-27.359 -286.264)" fill="#5a8676"/>
      <path id="패스_2683" data-name="패스 2683" d="M74.122,359.43a6.889,6.889,0,0,0,3.917-.6,7.872,7.872,0,0,0,2.791-2.235,15.387,15.387,0,0,0,1.719-2.82,12.823,12.823,0,0,0-4.275-.935,9.07,9.07,0,0,0-3.026.607,8.673,8.673,0,0,0-2.752,1.52,3.972,3.972,0,0,0-1.356,2.552,3.876,3.876,0,0,0,2.982,1.911Z" transform="translate(-43.212 -281.425)" fill="#5a8676"/>
      <path id="패스_2684" data-name="패스 2684" d="M46.759,366.6a1,1,0,0,1,.258.11c.162.08.4.2.676.375a10.121,10.121,0,0,1,2.037,1.64,7.218,7.218,0,0,1,1.506,2.258,5.286,5.286,0,0,1,.261.81,1.285,1.285,0,0,1,.046.312c-.029,0-.107-.435-.4-1.069a7.751,7.751,0,0,0-1.511-2.185,12.145,12.145,0,0,0-1.987-1.643C47.1,366.822,46.744,366.63,46.759,366.6Z" transform="translate(-26.665 -286.206)" fill="#263238"/>
      <path id="패스_2685" data-name="패스 2685" d="M72.662,360.112c0,.042-.552.155-1.452.471a14.845,14.845,0,0,0-3.19,1.673,17.779,17.779,0,0,0-2.682,2.229c-.618.632-.949,1.056-.988,1.037a4.606,4.606,0,0,1,.828-1.141,14.127,14.127,0,0,1,2.66-2.319,13.191,13.191,0,0,1,3.311-1.63q.309-.1.629-.174a3.687,3.687,0,0,1,.48-.1A1.236,1.236,0,0,1,72.662,360.112Z" transform="translate(-40.438 -285.128)" fill="#263238"/>
      <path id="패스_2690" data-name="패스 2690" d="M78.271,424.591c-.053.179-8.734.281-19.512.281s-19.519-.13-19.519-.281,8.734-.281,19.519-.281S78.324,424.412,78.271,424.591Z" transform="translate(-34.23 -333.296)" fill="#263238"/>
      <path id="패스_3323" data-name="패스 3323" d="M8.125.067C8.141.106,6.239.186,4,.186s-4,.02-4-.03A32.208,32.208,0,0,1,4,0C6.24,0,8.109.029,8.125.067Z" transform="matrix(0.921, -0.391, 0.391, 0.921, 43.951, 91.144)" fill="#707070"/>
    </g>
  </g>
</svg>
