<svg xmlns="http://www.w3.org/2000/svg" width="16" height="16" viewBox="0 0 16 16">
    <path data-name="사각형 5" style="fill:none" d="M0 0h16v16H0z"/>
    <path data-name="패스 7" d="M13.333 4.667H12a2.667 2.667 0 1 0-5.333 0H5.333A1.337 1.337 0 0 0 4 6v8a1.337 1.337 0 0 0 1.333 1.333h8A1.337 1.337 0 0 0 14.667 14V6a1.337 1.337 0 0 0-1.334-1.333zm-4-1.333a1.337 1.337 0 0 1 1.333 1.333H8a1.337 1.337 0 0 1 1.333-1.334zm4 10.667h-8V6h1.334v1.333a.667.667 0 0 0 1.333 0V6h2.667v1.333a.667.667 0 1 0 1.333 0V6h1.333z" transform="translate(-1.333 -.667)" style="fill:#5887f9"/>
</svg>
