<svg id="account_circle_black_24dp-2" xmlns="http://www.w3.org/2000/svg" width="24" height="24" viewBox="0 0 24 24">
  <defs>
    <style>
      .cls-1 {
        fill: none;
      }

      .cls-2 {
        fill: #707070;
      }
    </style>
  </defs>
  <g id="그룹_564" data-name="그룹 564">
    <rect id="사각형_1127" data-name="사각형 1127" class="cls-1" width="24" height="24"/>
  </g>
  <g id="그룹_566" data-name="그룹 566">
    <g id="그룹_565" data-name="그룹 565">
      <path id="패스_3343" data-name="패스 3343" class="cls-2" d="M12,2A10,10,0,1,0,22,12,10,10,0,0,0,12,2ZM7.35,18.5a7.957,7.957,0,0,1,9.3,0,7.957,7.957,0,0,1-9.3,0Zm10.79-1.38a9.951,9.951,0,0,0-12.28,0,8,8,0,1,1,12.28,0Z"/>
      <path id="패스_3344" data-name="패스 3344" class="cls-2" d="M12,6a3.5,3.5,0,1,0,3.5,3.5A3.5,3.5,0,0,0,12,6Zm0,5a1.5,1.5,0,1,1,1.5-1.5A1.5,1.5,0,0,1,12,11Z"/>
    </g>
  </g>
</svg>
